<svg width="53.807" height="95.971" xmlns="http://www.w3.org/2000/svg">
  <defs>
    <path id="sh" fill="#2f2f2f" d="m13.808 6.1e-5a1.455 1.455 0 0 0-0.55693 0.11081 1.455 1.455 0 0 0-0.47202 0.31552l-4.364 4.364-0.00115 6.968e-4 -6.967e-4 0.00104a1.455 1.455 0 0 0-0.31444 0.47095 1.455 1.455 0 0 0-0.11081 0.55693 1.455 1.455 0 0 0 0.11081 0.55693 1.455 1.455 0 0 0 0.31444 0.47095l6.967e-4 0.00115 0.00115 61.06e-4 4.364 4.364a1.455 1.455 0 0 0 0.47202 0.31552 1.455 1.455 0 0 0 0.55693 0.11081h26.19a1.455 1.455 0 0 0 0.55693-0.11081 1.455 1.455 0 0 0 0.47202-0.31552l4.364-4.364 0.0014-61.06e-4 6.96e-4 -0.00115a1.455 1.455 0 0 0 0.3144-0.47095 1.455 1.455 0 0 0 0.11081-0.55693 1.455 1.455 0 0 0-0.01796-0.22774 1.455 1.455 0 0 0-0.053256-0.22198 1.455 1.455 0 0 0-0.087424-0.21083 1.455 1.455 0 0 0-0.11909-0.19463 1.455 1.455 0 0 0-0.14607-0.17125l-0.0021-0.0025-0.0028-0.00219-4.3626-4.3626a1.455 1.455 0 0 0-0.17377-0.14859 1.455 1.455 0 0 0-0.19464-0.11909 1.455 1.455 0 0 0-0.21083-0.087424 1.455 1.455 0 0 0-0.22198-0.053245 1.455 1.455 0 0 0-0.22774-0.017992zm27.641 1.5744a1.455 1.455 0 0 1-0.0018 0.020505 1.455 1.455 0 0 0 0.0018-0.020505zm-0.0054 0.051451a1.455 1.455 0 0 1-0.0018 0.014393 1.455 1.455 0 0 0 0.0018-0.014393zm0.0054 8.6788a1.455 1.455 0 0 1-0.0018 0.0205 1.455 1.455 0 0 0 0.0018-0.0205z"/>
    <use id="sv" href="#sh" transform="rotate(90 5.8201 5.8202)"/>
  </defs>
  <use id="a" href="#sh" fill-opacity="1.0"/>
  <use id="b" href="#sv" fill-opacity="1.0" transform="translate(42.166)"/>
  <use id="c" href="#sv" fill-opacity="1.0" transform="translate(42.166 42.166)"/>
  <use id="d" href="#sh" fill-opacity="1.0" transform="translate(0 84.331)"/>
  <use id="e" href="#sv" fill-opacity="1.0" transform="translate(0 42.166)"/>
  <use id="f" href="#sv" fill-opacity="1.0"/>
  <use id="g" href="#sh" fill-opacity="1.0" transform="translate(0 42.166)"/>
</svg>
